<svg viewBox="0 0 320 400" fill="none" xmlns="http://www.w3.org/2000/svg" role="img" aria-label="GŌKAI — Associação Esportiva e Ambiental">
  <rect width="320" height="400" rx="24" fill="#0B5A2B"/>
  <!-- Mark emblem centered -->
  <g transform="translate(64, 40)">
    <circle cx="96" cy="96" r="96" fill="#0A4822"/>
    <circle cx="96" cy="96" r="92" fill="#0D5028"/>
    <circle cx="96" cy="96" r="89" fill="none" stroke="rgba(247,246,242,0.18)" stroke-width="1.5"/>
    <!-- (simplified version for logo sheet) -->
    <circle cx="96" cy="54" r="26" fill="#CF2E24"/>
    <ellipse cx="87" cy="45" rx="9" ry="8" fill="rgba(255,255,255,0.16)"/>
    <path d="M 101,99 C 112,85 132,64 152,38" stroke="#F7F6F2" stroke-width="2" fill="none" stroke-linecap="round"/>
    <line x1="114" y1="74" x2="123" y2="83" stroke="#F7F6F2" stroke-width="5.5" stroke-linecap="round"/>
    <circle cx="87" cy="101" r="8" fill="#F7F6F2"/>
    <ellipse cx="87" cy="92" rx="2.5" ry="5" fill="#F7F6F2"/>
    <path d="M 74,110 C 74,106 80,104 87,104 C 94,104 100,106 100,110 L 104,134 C 104,136 70,136 70,134 Z" fill="#F7F6F2"/>
    <path d="M 62,136 L 108,136 L 112,157 C 111,163 63,163 61,157 Z" fill="#F7F6F2" opacity="0.92"/>
    <line x1="72" y1="124" x2="102" y2="124" stroke="#CF2E24" stroke-width="2.5" stroke-linecap="round"/>
    <ellipse cx="47" cy="143" rx="13" ry="5" fill="#7AC943" transform="rotate(-38 47 143)"/>
    <ellipse cx="37" cy="153" rx="12" ry="4.5" fill="#6DC234" transform="rotate(-58 37 153)"/>
    <ellipse cx="55" cy="155" rx="11" ry="4" fill="#7AC943" transform="rotate(-18 55 155)"/>
  </g>
  <!-- Wordmark -->
  <text x="34" y="310" font-family="'Montserrat','Arial Black',system-ui,sans-serif" font-weight="900" font-size="54" letter-spacing="2" fill="#F7F6F2">GŌKAI</text>
  <!-- Tagline -->
  <text x="44" y="348" font-family="'Montserrat',system-ui,sans-serif" font-weight="600" font-size="11" letter-spacing="4" fill="rgba(247,246,242,0.55)">ASSOCIAÇÃO ESPORTIVA</text>
  <!-- Divider line -->
  <rect x="34" y="274" width="252" height="1.5" rx="1" fill="rgba(247,246,242,0.15)"/>
</svg>
